<?xml version="1.0" encoding="utf-8"?>
<!-- Generator: Adobe Illustrator 16.0.4, SVG Export Plug-In . SVG Version: 6.00 Build 0)  -->
<!DOCTYPE svg PUBLIC "-//W3C//DTD SVG 1.1//EN" "http://www.w3.org/Graphics/SVG/1.1/DTD/svg11.dtd">
<svg version="1.1" id="Layer_1" xmlns="http://www.w3.org/2000/svg" xmlns:xlink="http://www.w3.org/1999/xlink" x="0px" y="0px"
	 width="35px" height="35px" viewBox="288.5 378.5 35 35" enable-background="new 288.5 378.5 35 35" xml:space="preserve">
<circle fill="#007D99" cx="297.861" cy="387.275" r="8.775"/>
<circle fill="#007D99" cx="314.725" cy="404.825" r="8.775"/>
<g>
	<path fill="#FFFFFF" d="M297.465,382.279h-0.037l-2.115,1.141l-0.318-1.253l2.657-1.422h1.405v12.165h-1.592V382.279z"/>
</g>
<g>
	<path fill="#FFFFFF" d="M311.154,410.359v-1.011l1.29-1.254c3.106-2.958,4.512-4.53,4.528-6.364c0-1.234-0.599-2.375-2.414-2.375
		c-1.104,0-2.021,0.562-2.581,1.029l-0.525-1.161c0.843-0.71,2.042-1.234,3.444-1.234c2.621,0,3.724,1.796,3.724,3.536
		c0,2.248-1.628,4.061-4.191,6.532l-0.974,0.897v0.037h5.466v1.367H311.154z"/>
</g>
<g>
	<g>
		<g>
			<polygon fill="#007D99" points="302.652,393.485 305.856,396.512 307.267,397.846 305.027,397.908 305.841,398.678 308.64,398.6 
				308.561,395.8 307.747,395.03 307.812,397.271 306.398,395.937 303.197,392.908 			"/>
		</g>
	</g>
</g>
</svg>
