<?xml version="1.0" encoding="utf-8"?>
<!-- Generator: Adobe Illustrator 16.0.4, SVG Export Plug-In . SVG Version: 6.00 Build 0)  -->
<!DOCTYPE svg PUBLIC "-//W3C//DTD SVG 1.1//EN" "http://www.w3.org/Graphics/SVG/1.1/DTD/svg11.dtd">
<svg version="1.1" id="Layer_1" xmlns="http://www.w3.org/2000/svg" xmlns:xlink="http://www.w3.org/1999/xlink" x="0px" y="0px"
	 width="35px" height="35px" viewBox="0 0 35 35" enable-background="new 0 0 35 35" xml:space="preserve">
<g>
	<path fill="#D45A54" d="M14.561,28.908c0-1.007,0.265-1.769,0.796-2.286c0.531-0.516,1.23-0.775,2.102-0.775
		c0.952,0,1.688,0.26,2.204,0.775c0.517,0.518,0.775,1.279,0.775,2.286c0,0.979-0.265,1.741-0.796,2.285s-1.258,0.816-2.184,0.816
		c-0.898,0-1.605-0.272-2.123-0.816C14.82,30.65,14.561,29.889,14.561,28.908z M15.01,2.99h5.021v13.429l-0.979,6.652H15.99
		l-0.98-6.652V2.99L15.01,2.99z"/>
</g>
</svg>
