<?xml version="1.0" encoding="utf-8"?>
<!-- Generator: Adobe Illustrator 16.0.4, SVG Export Plug-In . SVG Version: 6.00 Build 0)  -->
<!DOCTYPE svg PUBLIC "-//W3C//DTD SVG 1.1//EN" "http://www.w3.org/Graphics/SVG/1.1/DTD/svg11.dtd">
<svg version="1.1" id="Layer_1" xmlns="http://www.w3.org/2000/svg" xmlns:xlink="http://www.w3.org/1999/xlink" x="0px" y="0px"
	 width="35px" height="35px" viewBox="0 0 35 35" enable-background="new 0 0 35 35" xml:space="preserve">
<g>
	<path fill="#2592AA" d="M10.72,16.868h5.414v7.769c-0.619,0.586-1.341,1.006-2.167,1.266c-0.827,0.26-1.65,0.389-2.469,0.389
		c-0.986,0-1.88-0.176-2.682-0.527c-0.802-0.35-1.483-0.896-2.043-1.641c-0.56-0.742-0.994-1.688-1.303-2.832
		s-0.463-2.52-0.463-4.123c0-1.671,0.184-3.083,0.551-4.235c0.367-1.153,0.855-2.093,1.466-2.82c0.61-0.727,1.32-1.253,2.13-1.579
		c0.811-0.326,1.667-0.489,2.569-0.489c0.802,0,1.533,0.071,2.193,0.213c0.66,0.142,1.207,0.305,1.641,0.489l-0.651,2.731
		c-0.334-0.15-0.723-0.276-1.166-0.375c-0.442-0.101-0.981-0.151-1.617-0.151c-0.585,0-1.115,0.117-1.591,0.351
		c-0.477,0.234-0.877,0.602-1.203,1.103c-0.326,0.501-0.577,1.149-0.752,1.943s-0.263,1.741-0.263,2.844
		c0,2.122,0.322,3.684,0.965,4.686c0.643,1.004,1.491,1.504,2.544,1.504c0.334,0,0.655-0.049,0.964-0.15
		c0.31-0.102,0.581-0.264,0.815-0.482v-3.627L10.72,18.73V16.868z"/>
	<path fill="#2592AA" d="M17.587,17.168c0-2.974,0.51-5.237,1.528-6.792c1.02-1.554,2.574-2.331,4.662-2.331
		c1.086,0,2.021,0.213,2.808,0.639c0.784,0.427,1.428,1.036,1.93,1.83c0.501,0.793,0.872,1.754,1.114,2.881
		c0.242,1.128,0.364,2.385,0.364,3.772c0,2.974-0.522,5.238-1.567,6.792c-1.044,1.553-2.594,2.33-4.648,2.33
		c-1.103,0-2.043-0.213-2.819-0.639c-0.777-0.426-1.417-1.035-1.917-1.83c-0.502-0.793-0.869-1.754-1.104-2.881
		C17.704,19.812,17.587,18.557,17.587,17.168z M20.896,17.168c0,0.886,0.05,1.708,0.149,2.468c0.102,0.762,0.268,1.416,0.502,1.969
		c0.234,0.551,0.53,0.986,0.89,1.303c0.358,0.318,0.806,0.477,1.341,0.477c0.969,0,1.695-0.492,2.181-1.479
		c0.484-0.986,0.727-2.566,0.727-4.738c0-0.852-0.05-1.658-0.15-2.419c-0.101-0.76-0.263-1.419-0.488-1.979
		c-0.227-0.56-0.522-1.002-0.891-1.328s-0.826-0.488-1.378-0.488C21.855,10.953,20.896,13.025,20.896,17.168z"/>
</g>
</svg>
