<?xml version="1.0" encoding="utf-8"?>
<!-- Generator: Adobe Illustrator 16.0.4, SVG Export Plug-In . SVG Version: 6.00 Build 0)  -->
<!DOCTYPE svg PUBLIC "-//W3C//DTD SVG 1.1//EN" "http://www.w3.org/Graphics/SVG/1.1/DTD/svg11.dtd">
<svg version="1.1" id="Layer_1" xmlns="http://www.w3.org/2000/svg" xmlns:xlink="http://www.w3.org/1999/xlink" x="0px" y="0px"
	 width="35px" height="35px" viewBox="0 0 35 35" enable-background="new 0 0 35 35" xml:space="preserve">
<g>
	<path fill="#2592AA" d="M3.761,17.654L2.96,14.486H2.873l0.279,3.117v8.911H1.079V8.355h1.689l3.501,9.066l0.749,3.117h0.105
		l-0.279-3.065v-8.99h2.073v18.159H7.228L3.761,17.654z"/>
	<path fill="#2592AA" d="M10.206,17.499c0-3.056,0.354-5.383,1.063-6.979c0.708-1.596,1.788-2.395,3.24-2.395
		c0.754,0,1.405,0.219,1.951,0.656s0.992,1.064,1.342,1.881c0.349,0.815,0.607,1.803,0.774,2.961
		c0.168,1.159,0.253,2.452,0.253,3.876c0,3.058-0.363,5.384-1.089,6.981s-1.803,2.395-3.231,2.395c-0.767,0-1.42-0.219-1.96-0.656
		c-0.54-0.439-0.984-1.064-1.333-1.879c-0.348-0.816-0.604-1.805-0.766-2.964C10.287,20.217,10.206,18.925,10.206,17.499z
		 M12.505,17.499c0,0.911,0.035,1.757,0.104,2.538c0.07,0.781,0.185,1.455,0.349,2.022c0.163,0.565,0.369,1.013,0.618,1.339
		s0.56,0.488,0.932,0.488c0.673,0,1.179-0.504,1.515-1.519c0.337-1.015,0.505-2.636,0.505-4.869c0-0.875-0.035-1.704-0.104-2.485
		s-0.183-1.459-0.339-2.034c-0.157-0.576-0.363-1.031-0.619-1.365c-0.256-0.336-0.575-0.502-0.958-0.502
		C13.172,11.112,12.505,13.241,12.505,17.499z"/>
	<path fill="#2592AA" d="M26.91,11.472h-2.874v15.042h-2.194V11.472h-2.891V8.483h7.959V11.472z"/>
	<path fill="#2592AA" d="M27.834,8.483h6.096v2.988h-3.901v4.431h3.536v2.988h-3.536v4.637H34v2.986h-6.166V8.483z"/>
</g>
</svg>
