<svg xmlns="http://www.w3.org/2000/svg" width="35" height="35"><rect x="11" y="4" opacity=".85" fill="#0A0D1E" enable-background="new" width="24" height="2"/><rect x="11" y="15" opacity=".85" fill="#0A0D1E" enable-background="new" width="24" height="2"/><rect x="11" y="26" opacity=".85" fill="#0A0D1E" enable-background="new" width="24" height="2"/><polygon fill="#007D99" points="6,16 6,12 0,12 0,14 4,14 4,15 0,15 0,19 6,19 6,17 2,17 2,16"/><polygon fill="#007D99" points="0,24 0,26 4,26 4,27 0,27 0,28 4,28 4,29 0,29 0,31 6,31 6,24"/><polygon fill="#007D99" points="4,6 4,1 0,1 0,3 2,3 2,6 0,6 0,8 6,8 6,6"/></svg>